# xmcd CD database file
#
# Track frame offsets:
#	225
#	13394
#	20438
#	28121
#	41403
#	54307
#	66134
#	75095
#	87026
#	98026
#	106028
#	119608
#	133316
#	141932
#	152948
#
# Disc length: 2182 seconds
#
# Revision: 1
# Processed by: cddbd v1.5.2PL0 Copyright (c) Steve Scherf et al.
# Submitted via: CDex 1.77
#
DISCID=bf08830f
DTITLE=The Oak Ridge Boys - Lead Me To Calvary
DYEAR=2002
DGENRE=Christian Rock
TTITLE0=You'll Never Walk Alone
TTITLE1=I Know
TTITLE2=I Asked The Lord
TTITLE3=Lead Me To Calvary
TTITLE4=The Old Couontry Church
TTITLE5=Gods Hands
TTITLE6=Less Of Me
TTITLE7=No One Cared So Much
TTITLE8=I'll Wake Up On The Other Side
TTITLE9=River Of Life
TTITLE10=Gypsy Boy
TTITLE11=Angels Must Have Cried
TTITLE12=A Day Of Rejoicing
TTITLE13=It's Different Now
TTITLE14=Welcome Home
EXTD=YEAR: 2002
EXTT0=
EXTT1=
EXTT2=
EXTT3=
EXTT4=
EXTT5=
EXTT6=
EXTT7=
EXTT8=
EXTT9=
EXTT10=
EXTT11=
EXTT12=
EXTT13=
EXTT14=
PLAYORDER=
